<?xml version="1.0" encoding="UTF-8" standalone="no"?>
<svg width="445px" height="445px" viewBox="0 0 445 445" version="1.1" xmlns="http://www.w3.org/2000/svg" xmlns:xlink="http://www.w3.org/1999/xlink" style="background: #FFFFFF;">
    <!-- Generator: Sketch 45.2 (43514) - http://www.bohemiancoding.com/sketch -->
    <title>Cube Article HIFI</title>
    <desc>Created with Sketch.</desc>
    <defs></defs>
    <g id="Page-2" stroke="none" stroke-width="1" fill="none" fill-rule="evenodd">
        <g id="Cube-Article-HIFI">
            <rect id="Guess_Screen_Overlay" fill="#BBBBBB" x="0" y="0" width="445" height="445"></rect>
            <g id="Guess_BGs" transform="translate(20.000000, 20.000000)" fill="#FFFFFF">
                <rect id="Guess_BG" x="0" y="0" width="405" height="405" rx="20"></rect>
            </g>
            <text id="Take-a-guess" font-family="OpenSans-Bold, Open Sans" font-size="16" font-weight="bold" fill="#444444">
                <tspan x="197.4375" y="227">Take a</tspan>
                <tspan x="201.042969" y="249">guess</tspan>
            </text>
            <g id="L" transform="translate(94.000000, 280.000000)">
                <text id="Left" font-family="OpenSans-Regular, Open Sans" font-size="12" font-weight="normal" fill="#444444">
                    <tspan x="40" y="123">Left</tspan>
                </text>
                <g id="'Bias/Large/Left" stroke="#E6E6E6">
                    <g id="left-bias" transform="translate(3.000000, 3.000000)">
                        <path d="M50.152381,50.1619048 L50.152381,99.8380952 C22.7169785,99.8380952 0.476190476,77.5973072 0.476190476,50.1619048 C0.37196373,41.4270013 2.67875626,32.8325514 7.14285714,25.3238095 L50.152381,50.1619048 Z" id="Shape" stroke-width="8.55" fill="#009BBD" fill-rule="nonzero"></path>
                        <path d="M50.152381,50.1619048 L93.1714286,25.3238095 C106.888208,49.0826948 98.7485028,79.4626854 74.9904762,93.1809524 C67.4817343,97.6450533 58.8872844,99.9518458 50.152381,99.847619 L50.152381,50.1619048 Z" id="Shape" stroke-width="8.55" fill="#FFFFFF" fill-rule="nonzero"></path>
                        <path d="M50.152381,50.1619048 L7.13333333,25.3238095 C20.8516003,1.5657829 51.2315909,-6.57392266 74.9904762,7.14285714 C82.6071163,11.4163185 88.8979672,17.7071694 93.1714286,25.3238095 L50.152381,50.1619048 Z" id="Shape" stroke-width="8.55" fill="#FFFFFF" fill-rule="nonzero"></path>
                    </g>
                </g>
            </g>
            <g id="LC" transform="translate(52.000000, 141.000000)">
                <text id="Left-Center" font-family="OpenSans-Regular, Open Sans" font-size="12" font-weight="normal" fill="#444444">
                    <tspan x="16" y="125">Left Center</tspan>
                </text>
                <g id="'Bias/Large/Left-Center" stroke="#E6E6E6">
                    <g id="left-center-bias" transform="translate(3.000000, 3.000000)">
                        <path d="M50.152381,50.1619048 L50.152381,99.8380952 C22.7169785,99.8380952 0.476190476,77.5973072 0.476190476,50.1619048 C0.37196373,41.4270013 2.67875626,32.8325514 7.14285714,25.3238095 L50.152381,50.1619048 Z" id="Shape" stroke-width="8.55" fill="#009BBD" fill-rule="nonzero"></path>
                        <path d="M50.152381,50.1619048 L93.1714286,25.3238095 C106.888208,49.0826948 98.7485028,79.4626854 74.9904762,93.1809524 C67.4817343,97.6450533 58.8872844,99.9518458 50.152381,99.847619 L50.152381,50.1619048 Z" id="Shape" stroke-width="8.55" fill="#FFFFFF" fill-rule="nonzero"></path>
                        <path d="M50.152381,50.1619048 L7.13333333,25.3238095 C20.8516003,1.5657829 51.2315909,-6.57392266 74.9904762,7.14285714 C82.6071163,11.4163185 88.8979672,17.7071694 93.1714286,25.3238095 L50.152381,50.1619048 Z" id="Shape" stroke-width="8.55" fill="#9100B8" fill-rule="nonzero"></path>
                    </g>
                </g>
            </g>
            <g id="C" transform="translate(247.000000, 280.000000)">
                <text id="Right" font-family="OpenSans-Regular, Open Sans" font-size="12" font-weight="normal" fill="#444444">
                    <tspan x="35" y="123">Right</tspan>
                </text>
                <g id="'Bias/Large/Right" stroke="#E6E6E6">
                    <g id="right-bias" transform="translate(3.000000, 3.000000)">
                        <path d="M50.152381,50.1619048 L50.152381,99.8380952 C22.7169785,99.8380952 0.476190476,77.5973072 0.476190476,50.1619048 C0.37196373,41.4270013 2.67875626,32.8325514 7.14285714,25.3238095 L50.152381,50.1619048 Z" id="Shape" stroke-width="8.55" fill="#FFFFFF" fill-rule="nonzero"></path>
                        <path d="M50.152381,50.1619048 L93.1714286,25.3238095 C106.888208,49.0826948 98.7485028,79.4626854 74.9904762,93.1809524 C67.4817343,97.6450533 58.8872844,99.9518458 50.152381,99.847619 L50.152381,50.1619048 Z" id="Shape" stroke-width="8.55" fill="#ED006F" fill-rule="nonzero"></path>
                        <path d="M50.152381,50.1619048 L7.13333333,25.3238095 C20.8516003,1.5657829 51.2315909,-6.57392266 74.9904762,7.14285714 C82.6071163,11.4163185 88.8979672,17.7071694 93.1714286,25.3238095 L50.152381,50.1619048 Z" id="Shape" stroke-width="8.55" fill="#FFFFFF" fill-rule="nonzero"></path>
                    </g>
                </g>
            </g>
            <g id="RC" transform="translate(289.000000, 141.000000)">
                <text id="Right-Center" font-family="OpenSans-Regular, Open Sans" font-size="12" font-weight="normal" fill="#444444">
                    <tspan x="11" y="125">Right Center</tspan>
                </text>
                <g id="'Bias/Large/Right-Center" stroke="#E6E6E6">
                    <g id="right-center-bias" transform="translate(3.000000, 3.000000)">
                        <path d="M50.152381,50.1619048 L50.152381,99.8380952 C22.7169785,99.8380952 0.476190476,77.5973072 0.476190476,50.1619048 C0.37196373,41.4270013 2.67875626,32.8325514 7.14285714,25.3238095 L50.152381,50.1619048 Z" id="Shape" stroke-width="8.55" fill="#FFFFFF" fill-rule="nonzero"></path>
                        <path d="M50.152381,50.1619048 L93.1714286,25.3238095 C106.888208,49.0826948 98.7485028,79.4626854 74.9904762,93.1809524 C67.4817343,97.6450533 58.8872844,99.9518458 50.152381,99.847619 L50.152381,50.1619048 Z" id="Shape" stroke-width="8.55" fill="#ED006F" fill-rule="nonzero"></path>
                        <path d="M50.152381,50.1619048 L7.13333333,25.3238095 C20.8516003,1.5657829 51.2315909,-6.57392266 74.9904762,7.14285714 C82.6071163,11.4163185 88.8979672,17.7071694 93.1714286,25.3238095 L50.152381,50.1619048 Z" id="Shape" stroke-width="8.55" fill="#9100B8" fill-rule="nonzero"></path>
                    </g>
                </g>
            </g>
            <g id="R" transform="translate(173.000000, 43.000000)">
                <text id="Center" font-family="OpenSans-Regular, Open Sans" font-size="12" font-weight="normal" fill="#444444">
                    <tspan x="28" y="119">Center</tspan>
                </text>
                <g id="'Bias/Large/Center" stroke="#E6E6E6">
                    <g id="center-bias" transform="translate(2.857143, 2.857143)">
                        <path d="M47.7641723,47.7732426 L47.7641723,95.0839002 C21.6352176,95.0839002 0.453514739,73.9021973 0.453514739,47.7732426 C0.354251172,39.454287 2.55119644,31.2690966 6.80272109,24.1179138 L47.7641723,47.7732426 Z" id="Shape" stroke-width="8.55" fill="#FFFFFF" fill-rule="nonzero"></path>
                        <path d="M47.7641723,47.7732426 L88.7346939,24.1179138 C101.798294,46.7454236 94.0461932,75.678748 71.4195011,88.7437642 C64.2683184,92.9952888 56.083128,95.1922341 47.7641723,95.0929705 L47.7641723,47.7732426 Z" id="Shape" stroke-width="8.55" fill="#FFFFFF" fill-rule="nonzero"></path>
                        <path d="M47.7641723,47.7732426 L6.79365079,24.1179138 C19.8586669,1.49122181 48.7919914,-6.26087872 71.4195011,6.80272109 C78.6734441,10.8726843 84.6647307,16.8639708 88.7346939,24.1179138 L47.7641723,47.7732426 Z" id="Shape" stroke-width="8.55" fill="#9100B8" fill-rule="nonzero"></path>
                    </g>
                </g>
            </g>
            <g id="Close_Btn" transform="translate(390.000000, 31.000000)" fill="#B80056">
                <g id="`Icons/delete/red">
                    <polygon id="delete" points="21.296 23.023 11.554 13.881 2.139 23.022 2.84217094e-14 20.916 9.687 11.511 2.84217094e-14 2.106 2.139 -2.27373675e-13 11.555 9.142 21.296 0.002 23.51 2.108 13.487 11.512 23.51 20.917"></polygon>
                </g>
            </g>
        </g>
    </g>
</svg>