<?xml version="1.0" encoding="UTF-8" standalone="no"?>
<svg width="445px" height="445px" viewBox="0 0 445 445" version="1.1" xmlns="http://www.w3.org/2000/svg" xmlns:xlink="http://www.w3.org/1999/xlink" style="background: #FFFFFF;">
    <!-- Generator: Sketch 45.2 (43514) - http://www.bohemiancoding.com/sketch -->
    <title>Cube HIFI Source</title>
    <desc>Created with Sketch.</desc>
    <defs></defs>
    <g id="Page-2" stroke="none" stroke-width="1" fill="none" fill-rule="evenodd">
        <g id="Cube-HIFI-Source">
            <g id="Borders" stroke="#BBBBBB" stroke-width="20">
                <rect id="Border_Locked" x="10" y="10" width="425" height="425"></rect>
            </g>
            <rect id="Rectangle-9" fill="#FFFFFF" x="185" y="422" width="75" height="23"></rect>
            <g id="'Screen-Indicator/Bottom/Inactive" transform="translate(200.000000, 410.000000)" fill="#BBBBBB">
                <text id="SAVE-/-SKIP" font-family="OpenSans-Regular, Open Sans" font-size="12" font-weight="normal">
                    <tspan x="0" y="12">ARTICLE</tspan>
                </text>
                <polyline id="Arrow" fill-rule="evenodd" transform="translate(22.506895, 25.497500) rotate(90.000000) translate(-22.506895, -25.497500) " points="18.7185484 38.995 28.3202419 25.504 18.7091129 12 16.6935484 14.833 24.2883871 25.505 16.7029839 36.163 18.7185484 38.995"></polyline>
            </g>
            <g id="L" transform="translate(170.000000, 40.000000)">
                <g id="'Bias/Large/Center" stroke="#E6E6E6" stroke-width="8.55" fill="#FFFFFF" fill-rule="nonzero">
                    <g id="left-bias" transform="translate(3.000000, 3.000000)">
                        <path d="M50.152381,50.1619048 L50.152381,99.8380952 C22.7169785,99.8380952 0.476190476,77.5973072 0.476190476,50.1619048 C0.37196373,41.4270013 2.67875626,32.8325514 7.14285714,25.3238095 L50.152381,50.1619048 Z" id="Shape"></path>
                        <path d="M50.152381,50.1619048 L93.1714286,25.3238095 C106.888208,49.0826948 98.7485028,79.4626854 74.9904762,93.1809524 C67.4817343,97.6450533 58.8872844,99.9518458 50.152381,99.847619 L50.152381,50.1619048 Z" id="Shape"></path>
                        <path d="M50.152381,50.1619048 L7.13333333,25.3238095 C20.8516003,1.5657829 51.2315909,-6.57392266 74.9904762,7.14285714 C82.6071163,11.4163185 88.8979672,17.7071694 93.1714286,25.3238095 L50.152381,50.1619048 Z" id="Shape"></path>
                    </g>
                </g>
                <text id="?" font-family="OpenSans-Regular, Open Sans" font-size="18" font-weight="normal" fill="#444444">
                    <tspan x="49" y="126">?</tspan>
                </text>
            </g>
            <g id="Locked_Text" transform="translate(40.000000, 184.000000)" font-size="24" font-family="OpenSans-Bold, Open Sans" letter-spacing="0.352941185" fill="#333333" font-weight="bold">
                <text id="Article-Source-Guess">
                    <tspan x="96.9962086" y="26">Article Source</tspan>
                    <tspan x="268.003791" y="26" font-family="OpenSans-Regular, Open Sans" font-weight="normal"></tspan>
                    <tspan x="0" y="71" font-family="OpenSans-Regular, Open Sans" font-size="16" font-weight="normal">Guess the bias of this article on the screen </tspan>
                    <tspan x="0" y="93" font-family="OpenSans-Regular, Open Sans" font-size="16" font-weight="normal">below to unlock the article source information!</tspan>
                    <tspan x="0" y="115" font-family="OpenSans-Regular, Open Sans" font-size="16" font-weight="normal"></tspan>
                    <tspan x="0" y="137" font-family="OpenSans-Regular, Open Sans" font-size="16" font-weight="normal"></tspan>
                    <tspan x="87.7309282" y="171" font-family="OpenSans-Regular, Open Sans" font-size="16" font-weight="normal">Written by Author Name</tspan>
                    <tspan x="106.619715" y="205" font-family="OpenSans-Regular, Open Sans" font-size="16" font-weight="normal">Published Recently!</tspan>
                </text>
            </g>
        </g>
    </g>
</svg>