<?xml version="1.0" encoding="UTF-8" standalone="no"?>
<svg width="445px" height="445px" viewBox="0 0 445 445" version="1.1" xmlns="http://www.w3.org/2000/svg" xmlns:xlink="http://www.w3.org/1999/xlink" style="background: #FFFFFF;">
    <!-- Generator: Sketch 45.2 (43514) - http://www.bohemiancoding.com/sketch -->
    <title>guess_screen_template</title>
    <desc>Created with Sketch.</desc>
    <defs>
        <linearGradient x1="50%" y1="3.061617e-15%" x2="50%" y2="100%" id="linearGradient-1">
            <stop stop-color="#00748D" offset="0%"></stop>
            <stop stop-color="#009BBD" offset="100%"></stop>
        </linearGradient>
        <rect id="path-2" x="0" y="0" width="405" height="405" rx="20"></rect>
        <filter x="-1.7%" y="-1.2%" width="103.5%" height="103.5%" filterUnits="objectBoundingBox" id="filter-3">
            <feOffset dx="0" dy="2" in="SourceAlpha" result="shadowOffsetOuter1"></feOffset>
            <feGaussianBlur stdDeviation="2" in="shadowOffsetOuter1" result="shadowBlurOuter1"></feGaussianBlur>
            <feColorMatrix values="0 0 0 0 0   0 0 0 0 0   0 0 0 0 0  0 0 0 0.5 0" type="matrix" in="shadowBlurOuter1"></feColorMatrix>
        </filter>
        <linearGradient x1="0%" y1="100%" x2="100%" y2="0%" id="linearGradient-4">
            <stop stop-color="#9100B8" offset="0%"></stop>
            <stop stop-color="#009BBD" offset="100%"></stop>
        </linearGradient>
        <rect id="path-5" x="0" y="0" width="405" height="405" rx="20"></rect>
        <filter x="-1.7%" y="-1.2%" width="103.5%" height="103.5%" filterUnits="objectBoundingBox" id="filter-6">
            <feOffset dx="0" dy="2" in="SourceAlpha" result="shadowOffsetOuter1"></feOffset>
            <feGaussianBlur stdDeviation="2" in="shadowOffsetOuter1" result="shadowBlurOuter1"></feGaussianBlur>
            <feColorMatrix values="0 0 0 0 0   0 0 0 0 0   0 0 0 0 0  0 0 0 0.5 0" type="matrix" in="shadowBlurOuter1"></feColorMatrix>
        </filter>
        <linearGradient x1="50%" y1="0%" x2="50%" y2="100%" id="linearGradient-7">
            <stop stop-color="#9100B8" offset="0%"></stop>
            <stop stop-color="#63007E" offset="100%"></stop>
        </linearGradient>
        <rect id="path-8" x="0" y="0" width="405" height="405" rx="20"></rect>
        <filter x="-1.7%" y="-1.2%" width="103.5%" height="103.5%" filterUnits="objectBoundingBox" id="filter-9">
            <feOffset dx="0" dy="2" in="SourceAlpha" result="shadowOffsetOuter1"></feOffset>
            <feGaussianBlur stdDeviation="2" in="shadowOffsetOuter1" result="shadowBlurOuter1"></feGaussianBlur>
            <feColorMatrix values="0 0 0 0 0   0 0 0 0 0   0 0 0 0 0  0 0 0 0.5 0" type="matrix" in="shadowBlurOuter1"></feColorMatrix>
        </filter>
        <linearGradient x1="0%" y1="0%" x2="100%" y2="96.5391413%" id="linearGradient-10">
            <stop stop-color="#9100B8" offset="0%"></stop>
            <stop stop-color="#ED006F" offset="100%"></stop>
        </linearGradient>
        <linearGradient x1="50%" y1="0%" x2="50%" y2="100%" id="linearGradient-11">
            <stop stop-color="#AA0050" offset="0%"></stop>
            <stop stop-color="#ED006F" offset="100%"></stop>
        </linearGradient>
        <linearGradient x1="100%" y1="0%" x2="0%" y2="100%" id="linearGradient-12">
            <stop stop-color="#ED006F" offset="0%"></stop>
            <stop stop-color="#9100B8" offset="49.2825255%"></stop>
            <stop stop-color="#009BBD" offset="100%"></stop>
        </linearGradient>
    </defs>
    <g id="Cube-Screens" stroke="none" stroke-width="1" fill="none" fill-rule="evenodd">
        <g id="guess_screen_template">
            <g id="overlay" fill-opacity="0.5" fill="#444444">
                <rect x="0" y="0" width="445" height="445"></rect>
            </g>
            <g id="Guess_L_BG" transform="translate(20.000000, 20.000000)">
                <g id="left_bg">
                    <use fill="black" fill-opacity="1" filter="url(#filter-3)" xlink:href="#path-2"></use>
                    <use fill="url(#linearGradient-1)" fill-rule="evenodd" xlink:href="#path-2"></use>
                </g>
            </g>
            <g id="Guess_LC_BG" transform="translate(20.000000, 20.000000)">
                <g id="leftcenter_bg">
                    <use fill="black" fill-opacity="1" filter="url(#filter-6)" xlink:href="#path-5"></use>
                    <use fill="url(#linearGradient-4)" fill-rule="evenodd" xlink:href="#path-5"></use>
                </g>
            </g>
            <g id="Guess_C_BG" transform="translate(20.000000, 20.000000)">
                <g id="center_bg">
                    <use fill="black" fill-opacity="1" filter="url(#filter-9)" xlink:href="#path-8"></use>
                    <use fill="url(#linearGradient-7)" fill-rule="evenodd" xlink:href="#path-8"></use>
                </g>
            </g>
            <g id="Guess_RC_BG" transform="translate(20.000000, 20.000000)" fill="url(#linearGradient-10)">
                <rect id="rightcenter_bg" x="0" y="0" width="405" height="405" rx="20"></rect>
            </g>
            <g id="Guess_R_BG" transform="translate(20.000000, 20.000000)" fill="url(#linearGradient-11)">
                <rect id="right_bg" x="0" y="0" width="405" height="405" rx="20"></rect>
            </g>
            <g id="Guess_BG" transform="translate(20.000000, 20.000000)" fill="url(#linearGradient-12)">
                <rect id="guess_bg" x="0" y="0" width="405" height="405" rx="20"></rect>
            </g>
            <g id="question_mark" transform="translate(148.000000, 205.000000)" font-size="24" font-family="OpenSans-Bold, Open Sans" fill="#FFFFFF" font-weight="bold">
                <text id="?">
                    <tspan x="69.2753906" y="26">?</tspan>
                </text>
            </g>
            <g id="L" transform="translate(97.000000, 283.000000)">
                <g id="L_bias" stroke="#E6E6E6" stroke-width="8.55" fill-rule="nonzero">
                    <path d="M50.152381,50.1619048 L50.152381,99.8380952 C22.7169785,99.8380952 0.476190476,77.5973072 0.476190476,50.1619048 C0.37196373,41.4270013 2.67875626,32.8325514 7.14285714,25.3238095 L50.152381,50.1619048 Z" id="Shape" fill="#009BBD"></path>
                    <path d="M50.152381,50.1619048 L93.1714286,25.3238095 C106.888208,49.0826948 98.7485028,79.4626854 74.9904762,93.1809524 C67.4817343,97.6450533 58.8872844,99.9518458 50.152381,99.847619 L50.152381,50.1619048 Z" id="Shape" fill="#FFFFFF"></path>
                    <path d="M50.152381,50.1619048 L7.13333333,25.3238095 C20.8516003,1.5657829 51.2315909,-6.57392266 74.9904762,7.14285714 C82.6071163,11.4163185 88.8979672,17.7071694 93.1714286,25.3238095 L50.152381,50.1619048 Z" id="Shape" fill="#FFFFFF"></path>
                </g>
                <text id="Left" font-family="OpenSans-Regular, Open Sans" font-size="12" font-weight="normal" fill="#FFFFFF">
                    <tspan x="37" y="120">Left</tspan>
                </text>
            </g>
            <g id="LC" transform="translate(55.000000, 144.000000)">
                <g id="LC_bias" stroke="#E6E6E6" stroke-width="8.55" fill-rule="nonzero">
                    <path d="M50.152381,50.1619048 L50.152381,99.8380952 C22.7169785,99.8380952 0.476190476,77.5973072 0.476190476,50.1619048 C0.37196373,41.4270013 2.67875626,32.8325514 7.14285714,25.3238095 L50.152381,50.1619048 Z" id="Shape" fill="#009BBD"></path>
                    <path d="M50.152381,50.1619048 L93.1714286,25.3238095 C106.888208,49.0826948 98.7485028,79.4626854 74.9904762,93.1809524 C67.4817343,97.6450533 58.8872844,99.9518458 50.152381,99.847619 L50.152381,50.1619048 Z" id="Shape" fill="#FFFFFF"></path>
                    <path d="M50.152381,50.1619048 L7.13333333,25.3238095 C20.8516003,1.5657829 51.2315909,-6.57392266 74.9904762,7.14285714 C82.6071163,11.4163185 88.8979672,17.7071694 93.1714286,25.3238095 L50.152381,50.1619048 Z" id="Shape" fill="#9100B8"></path>
                </g>
                <text id="Left-Center" font-family="OpenSans-Regular, Open Sans" font-size="12" font-weight="normal" fill="#FFFFFF">
                    <tspan x="13" y="122">Left Center</tspan>
                </text>
            </g>
            <g id="R" transform="translate(250.000000, 283.000000)">
                <g id="R_bias" stroke="#E6E6E6" stroke-width="8.55" fill-rule="nonzero">
                    <path d="M50.152381,50.1619048 L50.152381,99.8380952 C22.7169785,99.8380952 0.476190476,77.5973072 0.476190476,50.1619048 C0.37196373,41.4270013 2.67875626,32.8325514 7.14285714,25.3238095 L50.152381,50.1619048 Z" id="Shape" fill="#FFFFFF"></path>
                    <path d="M50.152381,50.1619048 L93.1714286,25.3238095 C106.888208,49.0826948 98.7485028,79.4626854 74.9904762,93.1809524 C67.4817343,97.6450533 58.8872844,99.9518458 50.152381,99.847619 L50.152381,50.1619048 Z" id="Shape" fill="#ED006F"></path>
                    <path d="M50.152381,50.1619048 L7.13333333,25.3238095 C20.8516003,1.5657829 51.2315909,-6.57392266 74.9904762,7.14285714 C82.6071163,11.4163185 88.8979672,17.7071694 93.1714286,25.3238095 L50.152381,50.1619048 Z" id="Shape" fill="#FFFFFF"></path>
                </g>
                <text id="Right" font-family="OpenSans-Regular, Open Sans" font-size="12" font-weight="normal" fill="#FFFFFF">
                    <tspan x="32" y="120">Right</tspan>
                </text>
            </g>
            <g id="RC" transform="translate(292.000000, 144.000000)">
                <g id="RC_bias" stroke="#E6E6E6" stroke-width="8.55" fill-rule="nonzero">
                    <path d="M50.152381,50.1619048 L50.152381,99.8380952 C22.7169785,99.8380952 0.476190476,77.5973072 0.476190476,50.1619048 C0.37196373,41.4270013 2.67875626,32.8325514 7.14285714,25.3238095 L50.152381,50.1619048 Z" id="Shape" fill="#FFFFFF"></path>
                    <path d="M50.152381,50.1619048 L93.1714286,25.3238095 C106.888208,49.0826948 98.7485028,79.4626854 74.9904762,93.1809524 C67.4817343,97.6450533 58.8872844,99.9518458 50.152381,99.847619 L50.152381,50.1619048 Z" id="Shape" fill="#ED006F"></path>
                    <path d="M50.152381,50.1619048 L7.13333333,25.3238095 C20.8516003,1.5657829 51.2315909,-6.57392266 74.9904762,7.14285714 C82.6071163,11.4163185 88.8979672,17.7071694 93.1714286,25.3238095 L50.152381,50.1619048 Z" id="Shape" fill="#9100B8"></path>
                </g>
                <text id="Right-Center" font-family="OpenSans-Regular, Open Sans" font-size="12" font-weight="normal" fill="#FFFFFF">
                    <tspan x="8" y="122">Right Center</tspan>
                </text>
            </g>
            <g id="C" transform="translate(175.000000, 45.000000)">
                <g id="C_bias" transform="translate(0.857143, 0.857143)" stroke="#E6E6E6" stroke-width="8.55" fill-rule="nonzero">
                    <path d="M47.7641723,47.7732426 L47.7641723,95.0839002 C21.6352176,95.0839002 0.453514739,73.9021973 0.453514739,47.7732426 C0.354251172,39.454287 2.55119644,31.2690966 6.80272109,24.1179138 L47.7641723,47.7732426 Z" id="Shape" fill="#FFFFFF"></path>
                    <path d="M47.7641723,47.7732426 L88.7346939,24.1179138 C101.798294,46.7454236 94.0461932,75.678748 71.4195011,88.7437642 C64.2683184,92.9952888 56.083128,95.1922341 47.7641723,95.0929705 L47.7641723,47.7732426 Z" id="Shape" fill="#FFFFFF"></path>
                    <path d="M47.7641723,47.7732426 L6.79365079,24.1179138 C19.8586669,1.49122181 48.7919914,-6.26087872 71.4195011,6.80272109 C78.6734441,10.8726843 84.6647307,16.8639708 88.7346939,24.1179138 L47.7641723,47.7732426 Z" id="Shape" fill="#9100B8"></path>
                </g>
                <text id="Center" font-family="OpenSans-Regular, Open Sans" font-size="12" font-weight="normal" fill="#FFFFFF">
                    <tspan x="26" y="117">Center</tspan>
                </text>
            </g>
            <g id="Close_Btn" transform="translate(390.000000, 31.000000)" fill="#B80056">
                <path d="M20.1818993,21.9775156 L11.554,13.881 L3.21583569,21.9765029 L3.21583569,21.9765029 C2.61722999,22.5576877 1.66402784,22.5543556 1.0695,21.969 L1.0695,21.969 L1.0695,21.969 C0.491999159,21.4004087 0.484776541,20.4713175 1.05336783,19.8938166 C1.06110418,19.885959 1.06892886,19.8781889 1.07684036,19.8705077 L9.687,11.511 L1.07684036,3.15149227 L1.07684036,3.15149227 C0.495375926,2.58695495 0.481653787,1.65793697 1.04619111,1.07647253 C1.0538723,1.06856102 1.06164242,1.06073635 1.0695,1.053 L1.0695,1.053 L1.0695,1.053 C1.66402757,0.467644666 2.61722952,0.464313329 3.21583403,1.0454988 L11.555,9.142 L20.1818387,1.04741981 L20.1818387,1.04741981 C20.8071501,0.460688871 21.7817078,0.464014759 22.403,1.055 L22.403,1.055 L22.403,1.055 C22.9805759,1.60440148 23.0034158,2.51799717 22.4540143,3.09557308 C22.435163,3.11539112 22.4157522,3.1346693 22.3958053,3.15338427 L13.487,11.512 L22.3958608,19.8715566 L22.3958608,19.8715566 C22.9771925,20.4170444 23.0062497,21.3305121 22.4607619,21.9118438 C22.4420623,21.9317721 22.4228006,21.9511653 22.403,21.97 L22.403,21.97 L22.403,21.97 C21.7817177,22.5609759 20.8071667,22.5642735 20.1818993,21.9775156 Z" id="delete" style="mix-blend-mode: darken;"></path>
            </g>
        </g>
    </g>
</svg>