<?xml version="1.0" encoding="utf-8"?>
<!-- Generator: Adobe Illustrator 21.1.0, SVG Export Plug-In . SVG Version: 6.00 Build 0)  -->
<svg version="1.1" id="Layer_1" xmlns="http://www.w3.org/2000/svg" xmlns:xlink="http://www.w3.org/1999/xlink" x="0px" y="0px"
	 viewBox="0 0 445 445" style="enable-background:new 0 0 445 445;" xml:space="preserve">
<style type="text/css">
	.st0{opacity:0.5;}
	.st1{fill:none;stroke:#231F20;stroke-width:2;stroke-linejoin:round;stroke-miterlimit:10;}
</style>
<g class="st0">
	<path class="st1" d="M167.9,303.9c14.5,8.6,24.7,14.2,43.5,18.5c0.5,0.1,1,0,1.6-0.4c0.8-0.7,1.4-1.8,1.4-2.9l-0.2-89.7v0
		c0-1.2-0.6-2.2-1.6-2.8l-77.8-44.7c-1-0.6-2.4-0.7-3.4-0.2c-0.8,0.3-0.9,0.8-0.9,0.9c-3.6,14.6-3.7,16.6-4.9,32.4l-0.2,2.1
		c0,1.2-0.1,3.1-0.1,5.4c-0.1,3.4-0.2,7.7-0.1,9.3l0,0.2c0.8,14.4,1.7,30.6,8.5,42.3C140.8,286.7,154.3,295.9,167.9,303.9z"/>
	<path class="st1" d="M176.6,129.8c14.6-8.1,30.2-15.7,46-15.7c0,0,0,0,0,0c15,0,30.3,7.8,43.7,14.6l0.2,0.1c1.6,0.8,5.1,3,8.4,5
		c1.9,1.2,3.7,2.3,4.6,2.8l0.2,0.1l1.9,1.3c2.6,1.8,4.8,3.3,6.7,4.6l-23.9-23.9c-23.1-23.1-60.9-23.1-83.9,0l-21.9,21.9
		C164.2,136.9,169.9,133.6,176.6,129.8z"/>
	<path class="st1" d="M143.3,168.1l77.7,44.9c1,0.6,2.3,0.6,3.3,0l77.7-44.9c1-0.6,1.8-1.7,1.9-2.8c0.1-0.8-0.2-1.1-0.3-1.2
		c-10.8-10.4-12.5-11.6-25.5-20.5l-1.7-1.2c-1-0.6-2.7-1.6-4.6-2.8c-2.9-1.8-6.6-4.1-8-4.8l-0.2-0.1c-12.8-6.5-27.3-13.9-40.8-13.9
		c0,0,0,0,0,0c-14.3,0-29,7.1-42.8,14.9c-14.7,8.2-24.7,14.3-37.9,28.3c-0.4,0.4-0.5,0.9-0.4,1.6
		C141.7,166.5,142.4,167.5,143.3,168.1z"/>
	<path class="st1" d="M326.7,181l-16.3-16.3c0,0.4,0,0.8-0.1,1.3c-0.4,3.1-2.3,6.1-5.1,7.7l-77.7,44.9c-1.5,0.9-3.2,1.3-4.9,1.3
		c-1.7,0-3.4-0.4-4.9-1.3l-77.7-44.9c-2.6-1.5-4.6-4.3-5-7.3c-0.1-0.7-0.1-1.4-0.1-2L118.3,181c-23.1,23.1-23.1,60.9,0,83.9l6.8,6.8
		c-5-12-5.8-26.4-6.5-39.3l0-0.2c-0.1-1.8,0-5.9,0.1-9.8c0.1-2.2,0.1-4.3,0.1-5.3l0-0.1l0.2-2.4c1.2-15.9,1.4-18.3,5.1-33.4
		c0.6-2.4,2.2-4.3,4.7-5.4c2.9-1.2,6.4-1,9.2,0.6l77.8,44.7c3,1.7,4.9,5,4.9,8.4v0l0.2,89.7c0,3-1.5,6.1-3.8,8
		c-1.6,1.3-3.4,1.9-5.2,1.9c-0.6,0-1.2-0.1-1.9-0.2c-19.7-4.6-30.3-10.3-45.4-19.3c-1.5-0.9-3-1.8-4.4-2.7l20.4,20.4
		c23.1,23.1,60.9,23.1,83.9,0l21.2-21.2c-1.4,0.9-2.7,1.8-4.1,2.7l-0.2,0.1c-1.5,1-5.1,2.9-8.6,4.8c-1.9,1-3.8,2-4.7,2.6l-0.2,0.1
		l-2,1c-14.4,6.9-16.6,7.9-31.5,12.2c-0.7,0.2-1.4,0.3-2.1,0.3c-1.7,0-3.4-0.6-4.8-1.7c-2.5-1.9-4.1-5.1-4.1-8.2l0-89.7
		c0-3.5,1.9-6.7,4.9-8.5l77.7-44.9c2.6-1.5,6-1.8,8.9-0.7c2.5,1,4.3,2.9,5,5.3c5.8,19.4,6.1,31.4,5.9,48.9
		c-0.2,14.7-1.2,29.9-6.9,42.7l8-8C349.8,241.9,349.8,204.1,326.7,181z"/>
	<path class="st1" d="M313.5,183.2c-0.2-0.5-0.5-0.9-1.2-1.1c-1-0.4-2.3-0.3-3.2,0.2l-77.7,44.9c-1,0.6-1.6,1.7-1.6,2.8l0,89.7
		c0,1.1,0.6,2.4,1.5,3c0.7,0.5,1.1,0.4,1.3,0.3c14.4-4.2,16.3-5.1,30.5-11.9l1.9-0.9c1-0.6,2.8-1.5,4.8-2.6c3-1.6,6.8-3.7,8.1-4.5
		l0.2-0.1c12.1-7.8,25.7-16.7,32.4-28.4c7.1-12.4,8.3-28.7,8.5-44.5C319.3,213.3,319,201.7,313.5,183.2z"/>
</g>
</svg>
