<?xml version="1.0" encoding="UTF-8" standalone="no"?>
<svg width="445px" height="445px" viewBox="0 0 445 445" version="1.1" xmlns="http://www.w3.org/2000/svg" xmlns:xlink="http://www.w3.org/1999/xlink" style="background: #FFFFFF;">
    <title>saveskipScreen</title>
    <defs></defs>
    <g id="Cube-Screens" stroke="none" stroke-width="1" fill="none" fill-rule="evenodd">
        <g id="saveskipScreen">
            <g id="btn_skip_pressed" transform="translate(40.000000, 135.000000)">
                <rect id="btn_gray" fill="#4F8000" x="0" y="0" width="175" height="175" rx="10"></rect>
                <g id="btn_content" transform="translate(43.000000, 27.000000)" fill="#FFFFFF">
                    <text id="SKIP-ALL" font-family="OpenSans-Regular, Open Sans" font-size="16" font-weight="normal" line-spacing="18">
                        <tspan x="13" y="120">SKIP ALL</tspan>
                    </text>
                    <path d="M45,0 C20.1624171,0 0,20.1623657 0,45 C0,69.8375571 20.1624171,90 45,90 C69.8375829,90 90,69.8375571 90,45 C90,20.1623657 69.8375829,0 45,0 Z M45,2.57142857 C68.4478813,2.57142857 87.4285714,21.5520686 87.4285714,45 C87.4285714,68.4478286 68.4478813,87.4285714 45,87.4285714 C21.55212,87.4285714 2.57142857,68.4478286 2.57142857,45 C2.57142857,21.5520686 21.55212,2.57142857 45,2.57142857 Z M42.3482143,29.53125 C41.8292328,29.5653183 41.3818816,29.9086725 41.2147759,30.4011947 C41.0476701,30.8937169 41.1937216,31.4384041 41.5848214,31.78125 L51.9508929,41.1428571 L34.7142857,41.1428571 C28.1021567,41.1428571 22.5846501,45.3787714 19.4464286,50.7857143 C19.0913884,51.4070346 19.3072511,52.1985312 19.9285714,52.5535714 C20.5498918,52.9086116 21.3413884,52.6927489 21.6964286,52.0714286 C24.4734647,47.2867714 29.2066161,43.7142857 34.7142857,43.7142857 L51.9508929,43.7142857 L41.5848214,53.0357143 C41.1484111,53.3060141 40.9145837,53.8099843 40.9899929,54.3177534 C41.0654021,54.8255224 41.4355975,55.2397887 41.9317252,55.3715966 C42.4278528,55.5034045 42.9548418,55.3274962 43.2723214,54.9241071 L56.1294643,43.3526786 C56.3927447,43.1092896 56.5424469,42.7670275 56.5424469,42.4084821 C56.5424469,42.0499368 56.3927447,41.7076747 56.1294643,41.4642857 L43.2723214,29.8928571 C43.0250792,29.653527 42.6922261,29.5232801 42.3482143,29.53125 Z M55.2053571,29.53125 C54.6863757,29.5653183 54.2390245,29.9086725 54.0719187,30.4011947 C53.904813,30.8937169 54.0508644,31.4384041 54.4419643,31.78125 L66.2544643,42.4285714 L54.4419643,53.0357143 C54.005554,53.3060141 53.7717266,53.8099843 53.8471358,54.3177534 C53.922545,54.8255224 54.2927404,55.2397887 54.788868,55.3715966 C55.2849957,55.5034045 55.8119847,55.3274962 56.1294643,54.9241071 L68.9866071,43.3526786 C69.2498875,43.1092896 69.3995898,42.7670275 69.3995898,42.4084821 C69.3995898,42.0499368 69.2498875,41.7076747 68.9866071,41.4642857 L56.1294643,29.8928571 C55.8822221,29.653527 55.5493689,29.5232801 55.2053571,29.53125 L55.2053571,29.53125 Z" id="Shape" stroke="#FFFFFF" stroke-width="2" fill-rule="nonzero"></path>
                </g>
                <text id="Skip-to-next-topic" font-family="OpenSans-Regular, Open Sans" font-size="16" font-weight="normal" letter-spacing="0.666666687" fill="#444444">
                    <tspan x="17.1158852" y="205">Skip to next topic </tspan>
                </text>
            </g>
            <g id="btn_skip" transform="translate(40.000000, 135.000000)">
                <rect id="btn_gray" fill="#72B800" x="0" y="0" width="175" height="175" rx="10"></rect>
                <g id="btn_content" transform="translate(43.000000, 27.000000)" fill="#FFFFFF">
                    <text id="SKIP-ALL" font-family="OpenSans-Regular, Open Sans" font-size="16" font-weight="normal" line-spacing="18">
                        <tspan x="13" y="120">SKIP ALL</tspan>
                    </text>
                    <path d="M45,0 C20.1624171,0 0,20.1623657 0,45 C0,69.8375571 20.1624171,90 45,90 C69.8375829,90 90,69.8375571 90,45 C90,20.1623657 69.8375829,0 45,0 Z M45,2.57142857 C68.4478813,2.57142857 87.4285714,21.5520686 87.4285714,45 C87.4285714,68.4478286 68.4478813,87.4285714 45,87.4285714 C21.55212,87.4285714 2.57142857,68.4478286 2.57142857,45 C2.57142857,21.5520686 21.55212,2.57142857 45,2.57142857 Z M42.3482143,29.53125 C41.8292328,29.5653183 41.3818816,29.9086725 41.2147759,30.4011947 C41.0476701,30.8937169 41.1937216,31.4384041 41.5848214,31.78125 L51.9508929,41.1428571 L34.7142857,41.1428571 C28.1021567,41.1428571 22.5846501,45.3787714 19.4464286,50.7857143 C19.0913884,51.4070346 19.3072511,52.1985312 19.9285714,52.5535714 C20.5498918,52.9086116 21.3413884,52.6927489 21.6964286,52.0714286 C24.4734647,47.2867714 29.2066161,43.7142857 34.7142857,43.7142857 L51.9508929,43.7142857 L41.5848214,53.0357143 C41.1484111,53.3060141 40.9145837,53.8099843 40.9899929,54.3177534 C41.0654021,54.8255224 41.4355975,55.2397887 41.9317252,55.3715966 C42.4278528,55.5034045 42.9548418,55.3274962 43.2723214,54.9241071 L56.1294643,43.3526786 C56.3927447,43.1092896 56.5424469,42.7670275 56.5424469,42.4084821 C56.5424469,42.0499368 56.3927447,41.7076747 56.1294643,41.4642857 L43.2723214,29.8928571 C43.0250792,29.653527 42.6922261,29.5232801 42.3482143,29.53125 Z M55.2053571,29.53125 C54.6863757,29.5653183 54.2390245,29.9086725 54.0719187,30.4011947 C53.904813,30.8937169 54.0508644,31.4384041 54.4419643,31.78125 L66.2544643,42.4285714 L54.4419643,53.0357143 C54.005554,53.3060141 53.7717266,53.8099843 53.8471358,54.3177534 C53.922545,54.8255224 54.2927404,55.2397887 54.788868,55.3715966 C55.2849957,55.5034045 55.8119847,55.3274962 56.1294643,54.9241071 L68.9866071,43.3526786 C69.2498875,43.1092896 69.3995898,42.7670275 69.3995898,42.4084821 C69.3995898,42.0499368 69.2498875,41.7076747 68.9866071,41.4642857 L56.1294643,29.8928571 C55.8822221,29.653527 55.5493689,29.5232801 55.2053571,29.53125 L55.2053571,29.53125 Z" id="Shape" stroke="#FFFFFF" stroke-width="2" fill-rule="nonzero"></path>
                </g>
                <text id="Skip-to-next-topic" font-family="OpenSans-Regular, Open Sans" font-size="16" font-weight="normal" letter-spacing="0.666666687" fill="#444444">
                    <tspan x="17.1158852" y="205">Skip to next topic </tspan>
                </text>
            </g>
            <g id="btn_save_pressed" transform="translate(230.000000, 135.000000)">
                <rect id="btn_green" fill="#4F8000" x="0" y="0" width="175" height="175" rx="10"></rect>
                <g id="btn_content" transform="translate(43.000000, 27.000000)" fill="#FFFFFF">
                    <text id="SAVE-ALL" font-family="OpenSans-Regular, Open Sans" font-size="16" font-weight="normal" line-spacing="18">
                        <tspan x="10" y="120">SAVE ALL</tspan>
                    </text>
                    <path d="M43.5198505,1.50753832 L43.5198505,59.0367053 L24.2083733,41.0390069 C23.9294184,40.768966 23.5538716,40.622006 23.1657349,40.6309986 C22.5638812,40.6342699 22.0265474,41.0088258 21.8152194,41.572394 C21.6038913,42.1359622 21.7624602,42.7714939 22.2137607,43.1697167 L43.9731715,63.479462 C44.5326064,64.0090201 45.4083492,64.0090201 45.9677842,63.479462 L67.727195,43.1697167 C68.3097404,42.6177096 68.337261,41.698882 67.7887977,41.1129957 C67.2403344,40.5271095 66.3217328,40.4940554 65.7325824,41.0390069 L46.4211052,59.0367053 L46.4211052,1.50753832 C46.4377672,1.08140658 46.2661132,0.669524681 45.9517633,0.381356916 C45.6374133,0.09318915 45.2122069,-0.0420768744 44.7891494,0.0115079788 C44.0419084,0.105143659 43.4905509,0.754988573 43.5198505,1.50753832 Z M7.25348047,0.0568422318 C3.26014643,0.0568422318 0,3.31699156 0,7.3103227 L0,82.7465195 C0,86.7398507 3.26014643,90 7.25348047,90 L82.6896773,90 C86.6830113,90 89.9431578,86.7398507 89.9431578,82.7465195 L89.9431578,7.3103227 C89.9431578,3.31699156 86.6830113,0.0568422318 82.6896773,0.0568422318 L60.9292359,0.0568422318 C60.4060628,0.0494432616 59.9194334,0.324314754 59.6556876,0.776203037 C59.3919418,1.22809132 59.3919418,1.78698533 59.6556876,2.23887361 C59.9194334,2.6907619 60.4060628,2.96563339 60.9292359,2.95823442 L82.6896773,2.95823442 C85.1258254,2.95823442 87.0417656,4.87416875 87.0417656,7.3103227 L87.0417656,82.7465195 C87.0417656,85.1826735 85.1258254,87.0986078 82.6896773,87.0986078 L7.25348047,87.0986078 C4.81733232,87.0986078 2.90139219,85.1826735 2.90139219,82.7465195 L2.90139219,7.3103227 C2.90139219,4.87416875 4.81733232,2.95823442 7.25348047,2.95823442 L29.0139219,2.95823442 C29.537095,2.96563339 30.0237244,2.6907619 30.2874701,2.23887361 C30.5512159,1.78698533 30.5512159,1.22809132 30.2874701,0.776203037 C30.0237244,0.324314754 29.537095,0.0494432616 29.0139219,0.0568422318 L7.25348047,0.0568422318 Z" id="Shape" stroke="#FFFFFF" stroke-width="2" fill-rule="nonzero"></path>
                </g>
                <text id="Save-&amp;-skip" font-family="OpenSans-Regular, Open Sans" font-size="16" font-weight="normal" letter-spacing="0.666666687" fill="#444444">
                    <tspan x="41.5598957" y="205">Save &amp; skip</tspan>
                </text>
            </g>
            <g id="btn_save" transform="translate(230.000000, 135.000000)">
                <rect id="btn_green" fill="#72B800" x="0" y="0" width="175" height="175" rx="10"></rect>
                <g id="btn_content" transform="translate(43.000000, 27.000000)" fill="#FFFFFF">
                    <text id="SAVE-ALL" font-family="OpenSans-Regular, Open Sans" font-size="16" font-weight="normal" line-spacing="18">
                        <tspan x="10" y="120">SAVE ALL</tspan>
                    </text>
                    <path d="M43.5198505,1.50753832 L43.5198505,59.0367053 L24.2083733,41.0390069 C23.9294184,40.768966 23.5538716,40.622006 23.1657349,40.6309986 C22.5638812,40.6342699 22.0265474,41.0088258 21.8152194,41.572394 C21.6038913,42.1359622 21.7624602,42.7714939 22.2137607,43.1697167 L43.9731715,63.479462 C44.5326064,64.0090201 45.4083492,64.0090201 45.9677842,63.479462 L67.727195,43.1697167 C68.3097404,42.6177096 68.337261,41.698882 67.7887977,41.1129957 C67.2403344,40.5271095 66.3217328,40.4940554 65.7325824,41.0390069 L46.4211052,59.0367053 L46.4211052,1.50753832 C46.4377672,1.08140658 46.2661132,0.669524681 45.9517633,0.381356916 C45.6374133,0.09318915 45.2122069,-0.0420768744 44.7891494,0.0115079788 C44.0419084,0.105143659 43.4905509,0.754988573 43.5198505,1.50753832 Z M7.25348047,0.0568422318 C3.26014643,0.0568422318 0,3.31699156 0,7.3103227 L0,82.7465195 C0,86.7398507 3.26014643,90 7.25348047,90 L82.6896773,90 C86.6830113,90 89.9431578,86.7398507 89.9431578,82.7465195 L89.9431578,7.3103227 C89.9431578,3.31699156 86.6830113,0.0568422318 82.6896773,0.0568422318 L60.9292359,0.0568422318 C60.4060628,0.0494432616 59.9194334,0.324314754 59.6556876,0.776203037 C59.3919418,1.22809132 59.3919418,1.78698533 59.6556876,2.23887361 C59.9194334,2.6907619 60.4060628,2.96563339 60.9292359,2.95823442 L82.6896773,2.95823442 C85.1258254,2.95823442 87.0417656,4.87416875 87.0417656,7.3103227 L87.0417656,82.7465195 C87.0417656,85.1826735 85.1258254,87.0986078 82.6896773,87.0986078 L7.25348047,87.0986078 C4.81733232,87.0986078 2.90139219,85.1826735 2.90139219,82.7465195 L2.90139219,7.3103227 C2.90139219,4.87416875 4.81733232,2.95823442 7.25348047,2.95823442 L29.0139219,2.95823442 C29.537095,2.96563339 30.0237244,2.6907619 30.2874701,2.23887361 C30.5512159,1.78698533 30.5512159,1.22809132 30.2874701,0.776203037 C30.0237244,0.324314754 29.537095,0.0494432616 29.0139219,0.0568422318 L7.25348047,0.0568422318 Z" id="Shape" stroke="#FFFFFF" stroke-width="2" fill-rule="nonzero"></path>
                </g>
                <text id="Save-&amp;-skip" font-family="OpenSans-Regular, Open Sans" font-size="16" font-weight="normal" letter-spacing="0.666666687" fill="#444444">
                    <tspan x="41.5598957" y="205">Save &amp; skip</tspan>
                </text>
            </g>
            <g id="btn_skip_disabled" transform="translate(40.000000, 135.000000)">
                <rect id="btn_gray" fill="#BBBBBB" x="0" y="0" width="175" height="175" rx="10"></rect>
                <g id="btn_content" transform="translate(43.000000, 27.000000)" fill="#FFFFFF">
                    <text id="SKIP-ALL" font-family="OpenSans-Regular, Open Sans" font-size="16" font-weight="normal" line-spacing="18">
                        <tspan x="13" y="120">SKIP ALL</tspan>
                    </text>
                    <path d="M45,0 C20.1624171,0 0,20.1623657 0,45 C0,69.8375571 20.1624171,90 45,90 C69.8375829,90 90,69.8375571 90,45 C90,20.1623657 69.8375829,0 45,0 Z M45,2.57142857 C68.4478813,2.57142857 87.4285714,21.5520686 87.4285714,45 C87.4285714,68.4478286 68.4478813,87.4285714 45,87.4285714 C21.55212,87.4285714 2.57142857,68.4478286 2.57142857,45 C2.57142857,21.5520686 21.55212,2.57142857 45,2.57142857 Z M42.3482143,29.53125 C41.8292328,29.5653183 41.3818816,29.9086725 41.2147759,30.4011947 C41.0476701,30.8937169 41.1937216,31.4384041 41.5848214,31.78125 L51.9508929,41.1428571 L34.7142857,41.1428571 C28.1021567,41.1428571 22.5846501,45.3787714 19.4464286,50.7857143 C19.0913884,51.4070346 19.3072511,52.1985312 19.9285714,52.5535714 C20.5498918,52.9086116 21.3413884,52.6927489 21.6964286,52.0714286 C24.4734647,47.2867714 29.2066161,43.7142857 34.7142857,43.7142857 L51.9508929,43.7142857 L41.5848214,53.0357143 C41.1484111,53.3060141 40.9145837,53.8099843 40.9899929,54.3177534 C41.0654021,54.8255224 41.4355975,55.2397887 41.9317252,55.3715966 C42.4278528,55.5034045 42.9548418,55.3274962 43.2723214,54.9241071 L56.1294643,43.3526786 C56.3927447,43.1092896 56.5424469,42.7670275 56.5424469,42.4084821 C56.5424469,42.0499368 56.3927447,41.7076747 56.1294643,41.4642857 L43.2723214,29.8928571 C43.0250792,29.653527 42.6922261,29.5232801 42.3482143,29.53125 Z M55.2053571,29.53125 C54.6863757,29.5653183 54.2390245,29.9086725 54.0719187,30.4011947 C53.904813,30.8937169 54.0508644,31.4384041 54.4419643,31.78125 L66.2544643,42.4285714 L54.4419643,53.0357143 C54.005554,53.3060141 53.7717266,53.8099843 53.8471358,54.3177534 C53.922545,54.8255224 54.2927404,55.2397887 54.788868,55.3715966 C55.2849957,55.5034045 55.8119847,55.3274962 56.1294643,54.9241071 L68.9866071,43.3526786 C69.2498875,43.1092896 69.3995898,42.7670275 69.3995898,42.4084821 C69.3995898,42.0499368 69.2498875,41.7076747 68.9866071,41.4642857 L56.1294643,29.8928571 C55.8822221,29.653527 55.5493689,29.5232801 55.2053571,29.53125 L55.2053571,29.53125 Z" id="Shape" stroke="#FFFFFF" stroke-width="2" fill-rule="nonzero"></path>
                </g>
                <text id="Skip-to-next-topic" font-family="OpenSans-Regular, Open Sans" font-size="16" font-weight="normal" letter-spacing="0.666666687" fill="#444444">
                    <tspan x="17.1158852" y="205">Skip to next topic </tspan>
                </text>
            </g>
            <g id="btn_save_disabled" transform="translate(230.000000, 135.000000)">
                <rect id="btn_green" fill="#BBBBBB" x="0" y="0" width="175" height="175" rx="10"></rect>
                <g id="btn_content" transform="translate(43.000000, 27.000000)" fill="#FFFFFF">
                    <text id="SAVE-ALL" font-family="OpenSans-Regular, Open Sans" font-size="16" font-weight="normal" line-spacing="18">
                        <tspan x="10" y="120">SAVE ALL</tspan>
                    </text>
                    <path d="M43.5198505,1.50753832 L43.5198505,59.0367053 L24.2083733,41.0390069 C23.9294184,40.768966 23.5538716,40.622006 23.1657349,40.6309986 C22.5638812,40.6342699 22.0265474,41.0088258 21.8152194,41.572394 C21.6038913,42.1359622 21.7624602,42.7714939 22.2137607,43.1697167 L43.9731715,63.479462 C44.5326064,64.0090201 45.4083492,64.0090201 45.9677842,63.479462 L67.727195,43.1697167 C68.3097404,42.6177096 68.337261,41.698882 67.7887977,41.1129957 C67.2403344,40.5271095 66.3217328,40.4940554 65.7325824,41.0390069 L46.4211052,59.0367053 L46.4211052,1.50753832 C46.4377672,1.08140658 46.2661132,0.669524681 45.9517633,0.381356916 C45.6374133,0.09318915 45.2122069,-0.0420768744 44.7891494,0.0115079788 C44.0419084,0.105143659 43.4905509,0.754988573 43.5198505,1.50753832 Z M7.25348047,0.0568422318 C3.26014643,0.0568422318 0,3.31699156 0,7.3103227 L0,82.7465195 C0,86.7398507 3.26014643,90 7.25348047,90 L82.6896773,90 C86.6830113,90 89.9431578,86.7398507 89.9431578,82.7465195 L89.9431578,7.3103227 C89.9431578,3.31699156 86.6830113,0.0568422318 82.6896773,0.0568422318 L60.9292359,0.0568422318 C60.4060628,0.0494432616 59.9194334,0.324314754 59.6556876,0.776203037 C59.3919418,1.22809132 59.3919418,1.78698533 59.6556876,2.23887361 C59.9194334,2.6907619 60.4060628,2.96563339 60.9292359,2.95823442 L82.6896773,2.95823442 C85.1258254,2.95823442 87.0417656,4.87416875 87.0417656,7.3103227 L87.0417656,82.7465195 C87.0417656,85.1826735 85.1258254,87.0986078 82.6896773,87.0986078 L7.25348047,87.0986078 C4.81733232,87.0986078 2.90139219,85.1826735 2.90139219,82.7465195 L2.90139219,7.3103227 C2.90139219,4.87416875 4.81733232,2.95823442 7.25348047,2.95823442 L29.0139219,2.95823442 C29.537095,2.96563339 30.0237244,2.6907619 30.2874701,2.23887361 C30.5512159,1.78698533 30.5512159,1.22809132 30.2874701,0.776203037 C30.0237244,0.324314754 29.537095,0.0494432616 29.0139219,0.0568422318 L7.25348047,0.0568422318 Z" id="Shape" stroke="#FFFFFF" stroke-width="2" fill-rule="nonzero"></path>
                </g>
                <text id="Save-&amp;-skip" font-family="OpenSans-Regular, Open Sans" font-size="16" font-weight="normal" letter-spacing="0.666666687" fill="#444444">
                    <tspan x="41.5598957" y="205">Save &amp; skip</tspan>
                </text>
            </g>
            <g id="title" transform="translate(0.000000, 40.000000)">
                <rect id="Rectangle-5" fill="#444444" x="0" y="0" width="445" height="41"></rect>
                <text id="Take-Action" font-family="OpenSans-Regular, Open Sans" font-size="20" font-weight="normal" letter-spacing="0.833333313" fill="#FFFFFF">
                    <tspan x="165.04069" y="28">Take Action</tspan>
                </text>
            </g>
            <g id="batteryLife" transform="translate(198.000000, 406.000000)" fill="#BBBBBB">
                <path d="M3.00000056,0 L42.0000006,0 C43.6560006,0 45.0000006,1.342 45.0000006,3 L45.0000006,16 C45.0000006,17.657 43.6560006,19 42.0000006,19 L3.00000056,19 C1.34300056,19 5.58088707e-07,17.657 5.58088707e-07,16 L5.58088707e-07,3 C-0.000999441911,1.342 1.34200056,0 3.00000056,0 Z M3.00000056,0.999 C1.89500056,0.999 0.999000558,1.895 1.00000056,2.999 L1.00000056,15.999 C1.00000056,17.103 1.89600056,17.999 3.00000056,17.999 L42.0000006,17.999 C43.1040006,17.999 44.0000006,17.103 44.0000006,15.999 L44.0000006,2.999 C44.0000006,1.895 43.1040006,0.999 42.0000006,0.999 L3.00000056,0.999 Z M3.00000056,2 L42.0000006,2 C42.5520006,2 43.0000006,2.447 43.0000006,3 L43.0000006,16 C43.0000006,16.552 42.5520006,17 42.0000006,17 L3.00000056,17 C2.44700056,17 2.00000056,16.553 2.00000056,16 L2.00000056,3 C1.99900056,2.447 2.44700056,2 3.00000056,2 Z M45.9990006,5.999 C47.6560006,5.999 48.9990006,7.343 48.9990006,9 L48.9990006,10 C48.9990006,11.657 47.6560006,13 45.9990006,13 L45.9990006,5.999 Z" id="Battery"></path>
            </g>
        </g>
    </g>
</svg>